<?xml version="1.0" encoding="UTF-8"?>
<svg width="38px" height="26px" viewBox="0 0 38 26" version="1.1" xmlns="http://www.w3.org/2000/svg" xmlns:xlink="http://www.w3.org/1999/xlink">
    <!-- Generator: sketchtool 48.1 (47250) - http://www.bohemiancoding.com/sketch -->
    <title>6362C2FE-FCF7-45D4-B334-4C09FB8D9417</title>
    <desc>Created with sketchtool.</desc>
    <defs></defs>
    <g id="Desktop" stroke="none" stroke-width="1" fill="none" fill-rule="evenodd" transform="translate(-816.000000, -255.000000)">
        <g id="Flag_eu" transform="translate(816.000000, 255.000000)" fill-rule="nonzero">
            <rect id="Rectangle-path" fill="#003399" x="0" y="0" width="38" height="26"></rect>
            <polygon id="Shape" fill="#FFEF52" points="18.515625 3.12 18.859375 4.30939227 20 4.30939227 19.078125 5.05060773 19.421875 6.24 18.5 5.49878453 17.578125 6.24 17.921875 5.05060773 17 4.30939227 18.140625 4.30939227"></polygon>
            <polygon id="Shape" fill="#FFEF52" points="26.515625 15.6 26.859375 16.7893923 28 16.7893923 27.078125 17.5306077 27.421875 18.72 26.5 17.9787845 25.578125 18.72 25.921875 17.5306077 25 16.7893923 26.140625 16.7893923"></polygon>
            <polygon id="Shape" fill="#FFEF52" points="18.515625 19.76 18.859375 20.9493923 20 20.9493923 19.078125 21.6906077 19.421875 22.88 18.5 22.1387845 17.578125 22.88 17.921875 21.6906077 17 20.9493923 18.140625 20.9493923"></polygon>
            <polygon id="Shape" fill="#FFEF52" points="27.515625 11.44 27.859375 12.6293923 29 12.6293923 28.078125 13.3706077 28.421875 14.56 27.5 13.8187845 26.578125 14.56 26.921875 13.3706077 26 12.6293923 27.140625 12.6293923"></polygon>
            <polygon id="Shape" fill="#FFEF52" points="10.5078534 11.44 10.8534031 12.6293923 12 12.6293923 11.0732984 13.3706077 11.4188482 14.56 10.5078534 13.8187845 9.58115183 14.56 9.92670157 13.3706077 9 12.6293923 10.1465969 12.6293923"></polygon>
            <polygon id="Shape" fill="#FFEF52" points="23.515625 4.16 23.859375 5.34939227 25 5.34939227 24.078125 6.09060773 24.421875 7.28 23.5 6.53878453 22.578125 7.28 22.921875 6.09060773 22 5.34939227 23.140625 5.34939227"></polygon>
            <polygon id="Shape" fill="#FFEF52" points="14.515625 4.16 14.859375 5.34939227 16 5.34939227 15.078125 6.09060773 15.421875 7.28 14.5 6.53878453 13.578125 7.28 13.921875 6.09060773 13 5.34939227 14.140625 5.34939227"></polygon>
            <polygon id="Shape" fill="#FFEF52" points="14.515625 18.72 14.859375 19.9093923 16 19.9093923 15.078125 20.6506077 15.421875 21.84 14.5 21.0987845 13.578125 21.84 13.921875 20.6506077 13 19.9093923 14.140625 19.9093923"></polygon>
            <polygon id="Shape" fill="#FFEF52" points="23.515625 18.72 23.859375 19.9093923 25 19.9093923 24.078125 20.6506077 24.421875 21.84 23.5 21.0987845 22.578125 21.84 22.921875 20.6506077 22 19.9093923 23.140625 19.9093923"></polygon>
            <polygon id="Shape" fill="#FFEF52" points="26.515625 7.28 26.859375 8.46939227 28 8.46939227 27.078125 9.21060773 27.421875 10.4 26.5 9.65878453 25.578125 10.4 25.921875 9.21060773 25 8.46939227 26.140625 8.46939227"></polygon>
            <polygon id="Shape" fill="#FFEF52" points="11.5078534 7.28 11.8534031 8.46939227 13 8.46939227 12.0732984 9.21060773 12.4188482 10.4 11.5078534 9.65878453 10.5811518 10.4 10.9267016 9.21060773 10 8.46939227 11.1465969 8.46939227"></polygon>
            <polygon id="Shape" fill="#FFEF52" points="11.515625 15.6 11.859375 16.7893923 13 16.7893923 12.078125 17.5306077 12.421875 18.72 11.5 17.9787845 10.578125 18.72 10.921875 17.5306077 10 16.7893923 11.140625 16.7893923"></polygon>
        </g>
    </g>
</svg>