<?xml version="1.0" encoding="UTF-8"?>
<svg width="166px" height="44px" viewBox="0 0 166 44" version="1.1" xmlns="http://www.w3.org/2000/svg" xmlns:xlink="http://www.w3.org/1999/xlink">
    <!-- Generator: sketchtool 48.1 (47250) - http://www.bohemiancoding.com/sketch -->
    <title>D90BD4D0-1842-430A-84C2-492D478F8ACB</title>
    <desc>Created with sketchtool.</desc>
    <defs>
        <polygon id="path-1" points="0 0.7635 36.0597 0.7635 36.0597 40.7535 0 40.7535"></polygon>
        <polygon id="path-3" points="0.232 0.6502 128.852 0.6502 128.852 33.9992 0.232 33.9992"></polygon>
    </defs>
    <g id="Desktop" stroke="none" stroke-width="1" fill="none" fill-rule="evenodd" transform="translate(-461.000000, -73.000000)">
        <g id="Page-1" transform="translate(461.000000, 72.000000)">
            <g id="Group-3" transform="translate(0.000000, 0.237100)">
                <mask id="mask-2" fill="white">
                    <use xlink:href="#path-1"></use>
                </mask>
                <g id="Clip-2"></g>
                <path d="M24.4627,28.5465 C25.3907,27.4565 26.0867,26.1385 26.5507,24.5915 C27.0147,23.0455 27.2457,21.2715 27.2457,19.2695 C27.2457,15.1355 26.3347,12.0465 24.5117,10.0045 C22.6887,7.9615 20.3047,6.9405 17.3587,6.9405 C14.4117,6.9405 12.0247,7.9655 10.1927,10.0165 C8.3617,12.0675 7.4457,15.1515 7.4457,19.2695 C7.4457,23.4525 8.3617,26.5805 10.1927,28.6565 C12.0247,30.7315 14.3387,31.7695 17.1387,31.7695 C18.1807,31.7695 19.1647,31.5985 20.0927,31.2565 C18.6277,30.2965 17.1387,29.5475 15.6247,29.0105 L17.6507,24.8845 C20.0267,25.6985 22.2977,26.9195 24.4627,28.5465 M30.2737,32.6235 C32.0477,33.8935 33.9767,34.9025 36.0597,35.6505 L33.3987,40.7535 C32.3077,40.4275 31.2417,39.9805 30.1997,39.4105 C29.9727,39.2965 28.3687,38.2385 25.3907,36.2365 C23.0467,37.2625 20.4507,37.7755 17.6027,37.7755 C12.1017,37.7755 7.7917,36.1555 4.6757,32.9165 C1.5587,29.6785 -0.0003,25.1285 -0.0003,19.2695 C-0.0003,13.4265 1.5627,8.8815 4.6877,5.6335 C7.8127,2.3875 12.0527,0.7635 17.4067,0.7635 C22.7127,0.7635 26.9207,2.3875 30.0287,5.6335 C33.1377,8.8815 34.6917,13.4265 34.6917,19.2695 C34.6917,22.3615 34.2607,25.0795 33.3987,27.4235 C32.7467,29.2145 31.7057,30.9475 30.2737,32.6235" id="Fill-1" fill="#27726B" mask="url(#mask-2)"></path>
            </g>
            <g id="Group-6" transform="translate(37.000000, 10.237100)">
                <mask id="mask-4" fill="white">
                    <use xlink:href="#path-3"></use>
                </mask>
                <g id="Clip-5"></g>
                <path d="M122.034,11.9782 C121.985,9.9932 121.472,8.4832 120.496,7.4502 C119.519,6.4162 118.331,5.8992 116.931,5.8992 C115.433,5.8992 114.197,6.4452 113.221,7.5352 C112.244,8.6252 111.763,10.1072 111.78,11.9782 L122.034,11.9782 Z M121.643,18.9122 L128.479,20.0592 C127.6,22.5662 126.213,24.4742 124.317,25.7852 C122.421,27.0952 120.048,27.7492 117.2,27.7492 C112.691,27.7492 109.354,26.2772 107.19,23.3312 C105.481,20.9712 104.627,17.9932 104.627,14.3952 C104.627,10.0982 105.75,6.7342 107.996,4.3002 C110.242,1.8672 113.082,0.6502 116.516,0.6502 C120.374,0.6502 123.417,1.9242 125.647,4.4712 C127.877,7.0182 128.943,10.9202 128.846,16.1772 L111.658,16.1772 C111.707,18.2122 112.26,19.7952 113.318,20.9262 C114.376,22.0572 115.694,22.6232 117.273,22.6232 C118.347,22.6232 119.251,22.3302 119.983,21.7442 C120.716,21.1582 121.268,20.2142 121.643,18.9122 Z M85.535,1.2362 L103.04,1.2362 L103.04,6.7782 L92.395,6.7782 L92.395,27.1642 L85.535,27.1642 L85.535,1.2362 Z M81.58,33.9992 L76.038,33.9992 L76.038,27.1642 L72.01,27.1642 L72.01,16.2752 L62.195,16.2752 L62.195,27.1642 L55.335,27.1642 L55.335,1.2362 L62.195,1.2362 L62.195,10.7332 L72.01,10.7332 L72.01,1.2362 L78.894,1.2362 L78.894,21.6222 L81.58,21.6222 L81.58,33.9992 Z M43.198,11.9782 C43.149,9.9932 42.637,8.4832 41.66,7.4502 C40.683,6.4162 39.496,5.8992 38.096,5.8992 C36.598,5.8992 35.361,6.4452 34.385,7.5352 C33.408,8.6252 32.929,10.1072 32.944,11.9782 L43.198,11.9782 Z M42.807,18.9122 L49.643,20.0592 C48.764,22.5662 47.377,24.4742 45.481,25.7852 C43.585,27.0952 41.213,27.7492 38.364,27.7492 C33.856,27.7492 30.519,26.2772 28.354,23.3312 C26.645,20.9712 25.791,17.9932 25.791,14.3952 C25.791,10.0982 26.914,6.7342 29.16,4.3002 C31.406,1.8672 34.247,0.6502 37.68,0.6502 C41.538,0.6502 44.582,1.9242 46.811,4.4712 C49.042,7.0182 50.107,10.9202 50.01,16.1772 L32.822,16.1772 C32.871,18.2122 33.425,19.7952 34.482,20.9262 C35.541,22.0572 36.859,22.6232 38.437,22.6232 C39.512,22.6232 40.415,22.3302 41.147,21.7442 C41.88,21.1582 42.433,20.2142 42.807,18.9122 Z M0.232,1.2362 L23.694,1.2362 L23.694,6.7782 L15.393,6.7782 L15.393,27.1642 L8.533,27.1642 L8.533,6.7782 L0.232,6.7782 L0.232,1.2362 Z" id="Fill-4" fill="#585858" mask="url(#mask-4)"></path>
            </g>
        </g>
    </g>
</svg>