<?xml version="1.0" encoding="UTF-8"?>
<svg width="38px" height="26px" viewBox="0 0 38 26" version="1.1" xmlns="http://www.w3.org/2000/svg" xmlns:xlink="http://www.w3.org/1999/xlink">
    <!-- Generator: sketchtool 48.1 (47250) - http://www.bohemiancoding.com/sketch -->
    <title>1C809FF2-1E02-466C-AA25-28DE2BA6C83F</title>
    <desc>Created with sketchtool.</desc>
    <defs></defs>
    <g id="Desktop" stroke="none" stroke-width="1" fill="none" fill-rule="evenodd" transform="translate(-479.000000, -255.000000)">
        <g id="us-copy" transform="translate(479.000000, 255.000000)" fill-rule="nonzero">
            <rect id="Rectangle-path" fill="#B22234" x="0" y="0" width="38" height="26"></rect>
            <path d="M0,3 L38,3 M38,6.99866711 L0,6.99866711 M0,10.9973342 L38,10.9973342 M38,14.9960013 L0,14.9960013 M0,18.9946684 L38,18.9946684 M38,22.9933356 L0,22.9933356" id="Shape" stroke="#FFFFFF" stroke-width="2" fill="#000000"></path>
            <rect id="Rectangle-path" fill="#3C3B6E" x="0" y="0" width="17" height="14"></rect>
            <g id="Group" transform="translate(1.000000, 1.000000)" fill="#FFFFFF">
                <g id="s18">
                    <g id="s9">
                        <g id="s5">
                            <g id="s4">
                                <polygon id="s" points="0.766666667 0 1.23689487 1.38065876 0.00582145333 0.527364723 1.52751188 0.527364723 0.296438467 1.38065876"></polygon>
                                <g id="s-link" transform="translate(0.000000, 2.671233)">
                                    <polygon id="s" points="0.766666667 0 1.23689487 1.38065876 0.00582145333 0.527364723 1.52751188 0.527364723 0.296438467 1.38065876"></polygon>
                                </g>
                                <g id="s-link" transform="translate(0.000000, 5.342466)">
                                    <polygon id="s" points="0.766666667 0 1.23689487 1.38065876 0.00582145333 0.527364723 1.52751188 0.527364723 0.296438467 1.38065876"></polygon>
                                </g>
                                <g id="s-link" transform="translate(0.000000, 8.013699)">
                                    <polygon id="s" points="0.766666667 0 1.23689487 1.38065876 0.00582145333 0.527364723 1.52751188 0.527364723 0.296438467 1.38065876"></polygon>
                                </g>
                            </g>
                            <g id="s-link" transform="translate(0.000000, 10.684932)">
                                <polygon id="s" points="0.766666667 0 1.23689487 1.38065876 0.00582145333 0.527364723 1.52751188 0.527364723 0.296438467 1.38065876"></polygon>
                            </g>
                        </g>
                        <g id="s4-link" transform="translate(1.646667, 1.335616)">
                            <g id="s4">
                                <polygon id="s" points="0.766666667 0 1.23689487 1.38065876 0.00582145333 0.527364723 1.52751188 0.527364723 0.296438467 1.38065876"></polygon>
                                <g id="s-link" transform="translate(0.000000, 2.671233)">
                                    <polygon id="s" points="0.766666667 0 1.23689487 1.38065876 0.00582145333 0.527364723 1.52751188 0.527364723 0.296438467 1.38065876"></polygon>
                                </g>
                                <g id="s-link" transform="translate(0.000000, 5.342466)">
                                    <polygon id="s" points="0.766666667 0 1.23689487 1.38065876 0.00582145333 0.527364723 1.52751188 0.527364723 0.296438467 1.38065876"></polygon>
                                </g>
                                <g id="s-link" transform="translate(0.000000, 8.013699)">
                                    <polygon id="s" points="0.766666667 0 1.23689487 1.38065876 0.00582145333 0.527364723 1.52751188 0.527364723 0.296438467 1.38065876"></polygon>
                                </g>
                            </g>
                        </g>
                    </g>
                    <g id="s9-link" transform="translate(3.293333, 0.000000)">
                        <g id="s9">
                            <g id="s5">
                                <g id="s4">
                                    <polygon id="s" points="0.766666667 0 1.23689487 1.38065876 0.00582145333 0.527364723 1.52751188 0.527364723 0.296438467 1.38065876"></polygon>
                                    <g id="s-link" transform="translate(0.000000, 2.671233)">
                                        <polygon id="s" points="0.766666667 0 1.23689487 1.38065876 0.00582145333 0.527364723 1.52751188 0.527364723 0.296438467 1.38065876"></polygon>
                                    </g>
                                    <g id="s-link" transform="translate(0.000000, 5.342466)">
                                        <polygon id="s" points="0.766666667 0 1.23689487 1.38065876 0.00582145333 0.527364723 1.52751188 0.527364723 0.296438467 1.38065876"></polygon>
                                    </g>
                                    <g id="s-link" transform="translate(0.000000, 8.013699)">
                                        <polygon id="s" points="0.766666667 0 1.23689487 1.38065876 0.00582145333 0.527364723 1.52751188 0.527364723 0.296438467 1.38065876"></polygon>
                                    </g>
                                </g>
                                <g id="s-link" transform="translate(0.000000, 10.684932)">
                                    <polygon id="s" points="0.766666667 0 1.23689487 1.38065876 0.00582145333 0.527364723 1.52751188 0.527364723 0.296438467 1.38065876"></polygon>
                                </g>
                            </g>
                            <g id="s4-link" transform="translate(1.646667, 1.335616)">
                                <g id="s4">
                                    <polygon id="s" points="0.766666667 0 1.23689487 1.38065876 0.00582145333 0.527364723 1.52751188 0.527364723 0.296438467 1.38065876"></polygon>
                                    <g id="s-link" transform="translate(0.000000, 2.671233)">
                                        <polygon id="s" points="0.766666667 0 1.23689487 1.38065876 0.00582145333 0.527364723 1.52751188 0.527364723 0.296438467 1.38065876"></polygon>
                                    </g>
                                    <g id="s-link" transform="translate(0.000000, 5.342466)">
                                        <polygon id="s" points="0.766666667 0 1.23689487 1.38065876 0.00582145333 0.527364723 1.52751188 0.527364723 0.296438467 1.38065876"></polygon>
                                    </g>
                                    <g id="s-link" transform="translate(0.000000, 8.013699)">
                                        <polygon id="s" points="0.766666667 0 1.23689487 1.38065876 0.00582145333 0.527364723 1.52751188 0.527364723 0.296438467 1.38065876"></polygon>
                                    </g>
                                </g>
                            </g>
                        </g>
                    </g>
                </g>
                <g id="s18-link" transform="translate(6.000000, 0.000000)">
                    <g id="s18">
                        <g id="s9">
                            <g id="s5">
                                <g id="s4">
                                    <polygon id="s" points="0.766666667 0 1.23689487 1.38065876 0.00582145333 0.527364723 1.52751188 0.527364723 0.296438467 1.38065876"></polygon>
                                    <g id="s-link" transform="translate(0.000000, 2.671233)">
                                        <polygon id="s" points="0.766666667 0 1.23689487 1.38065876 0.00582145333 0.527364723 1.52751188 0.527364723 0.296438467 1.38065876"></polygon>
                                    </g>
                                    <g id="s-link" transform="translate(0.000000, 5.342466)">
                                        <polygon id="s" points="0.766666667 0 1.23689487 1.38065876 0.00582145333 0.527364723 1.52751188 0.527364723 0.296438467 1.38065876"></polygon>
                                    </g>
                                    <g id="s-link" transform="translate(0.000000, 8.013699)">
                                        <polygon id="s" points="0.766666667 0 1.23689487 1.38065876 0.00582145333 0.527364723 1.52751188 0.527364723 0.296438467 1.38065876"></polygon>
                                    </g>
                                </g>
                                <g id="s-link" transform="translate(0.000000, 10.684932)">
                                    <polygon id="s" points="0.766666667 0 1.23689487 1.38065876 0.00582145333 0.527364723 1.52751188 0.527364723 0.296438467 1.38065876"></polygon>
                                </g>
                            </g>
                            <g id="s4-link" transform="translate(1.646667, 1.335616)">
                                <g id="s4">
                                    <polygon id="s" points="0.766666667 0 1.23689487 1.38065876 0.00582145333 0.527364723 1.52751188 0.527364723 0.296438467 1.38065876"></polygon>
                                    <g id="s-link" transform="translate(0.000000, 2.671233)">
                                        <polygon id="s" points="0.766666667 0 1.23689487 1.38065876 0.00582145333 0.527364723 1.52751188 0.527364723 0.296438467 1.38065876"></polygon>
                                    </g>
                                    <g id="s-link" transform="translate(0.000000, 5.342466)">
                                        <polygon id="s" points="0.766666667 0 1.23689487 1.38065876 0.00582145333 0.527364723 1.52751188 0.527364723 0.296438467 1.38065876"></polygon>
                                    </g>
                                    <g id="s-link" transform="translate(0.000000, 8.013699)">
                                        <polygon id="s" points="0.766666667 0 1.23689487 1.38065876 0.00582145333 0.527364723 1.52751188 0.527364723 0.296438467 1.38065876"></polygon>
                                    </g>
                                </g>
                            </g>
                        </g>
                        <g id="s9-link" transform="translate(3.293333, 0.000000)">
                            <g id="s9">
                                <g id="s5">
                                    <g id="s4">
                                        <polygon id="s" points="0.766666667 0 1.23689487 1.38065876 0.00582145333 0.527364723 1.52751188 0.527364723 0.296438467 1.38065876"></polygon>
                                        <g id="s-link" transform="translate(0.000000, 2.671233)">
                                            <polygon id="s" points="0.766666667 0 1.23689487 1.38065876 0.00582145333 0.527364723 1.52751188 0.527364723 0.296438467 1.38065876"></polygon>
                                        </g>
                                        <g id="s-link" transform="translate(0.000000, 5.342466)">
                                            <polygon id="s" points="0.766666667 0 1.23689487 1.38065876 0.00582145333 0.527364723 1.52751188 0.527364723 0.296438467 1.38065876"></polygon>
                                        </g>
                                        <g id="s-link" transform="translate(0.000000, 8.013699)">
                                            <polygon id="s" points="0.766666667 0 1.23689487 1.38065876 0.00582145333 0.527364723 1.52751188 0.527364723 0.296438467 1.38065876"></polygon>
                                        </g>
                                    </g>
                                    <g id="s-link" transform="translate(0.000000, 10.684932)">
                                        <polygon id="s" points="0.766666667 0 1.23689487 1.38065876 0.00582145333 0.527364723 1.52751188 0.527364723 0.296438467 1.38065876"></polygon>
                                    </g>
                                </g>
                                <g id="s4-link" transform="translate(1.646667, 1.335616)">
                                    <g id="s4">
                                        <polygon id="s" points="0.766666667 0 1.23689487 1.38065876 0.00582145333 0.527364723 1.52751188 0.527364723 0.296438467 1.38065876"></polygon>
                                        <g id="s-link" transform="translate(0.000000, 2.671233)">
                                            <polygon id="s" points="0.766666667 0 1.23689487 1.38065876 0.00582145333 0.527364723 1.52751188 0.527364723 0.296438467 1.38065876"></polygon>
                                        </g>
                                        <g id="s-link" transform="translate(0.000000, 5.342466)">
                                            <polygon id="s" points="0.766666667 0 1.23689487 1.38065876 0.00582145333 0.527364723 1.52751188 0.527364723 0.296438467 1.38065876"></polygon>
                                        </g>
                                        <g id="s-link" transform="translate(0.000000, 8.013699)">
                                            <polygon id="s" points="0.766666667 0 1.23689487 1.38065876 0.00582145333 0.527364723 1.52751188 0.527364723 0.296438467 1.38065876"></polygon>
                                        </g>
                                    </g>
                                </g>
                            </g>
                        </g>
                    </g>
                </g>
                <g id="s9-link" transform="translate(12.000000, 0.000000)">
                    <g id="s9">
                        <g id="s5">
                            <g id="s4">
                                <polygon id="s" points="0.766666667 0 1.23689487 1.38065876 0.00582145333 0.527364723 1.52751188 0.527364723 0.296438467 1.38065876"></polygon>
                                <g id="s-link" transform="translate(0.000000, 2.671233)">
                                    <polygon id="s" points="0.766666667 0 1.23689487 1.38065876 0.00582145333 0.527364723 1.52751188 0.527364723 0.296438467 1.38065876"></polygon>
                                </g>
                                <g id="s-link" transform="translate(0.000000, 5.342466)">
                                    <polygon id="s" points="0.766666667 0 1.23689487 1.38065876 0.00582145333 0.527364723 1.52751188 0.527364723 0.296438467 1.38065876"></polygon>
                                </g>
                                <g id="s-link" transform="translate(0.000000, 8.013699)">
                                    <polygon id="s" points="0.766666667 0 1.23689487 1.38065876 0.00582145333 0.527364723 1.52751188 0.527364723 0.296438467 1.38065876"></polygon>
                                </g>
                            </g>
                            <g id="s-link" transform="translate(0.000000, 10.684932)">
                                <polygon id="s" points="0.766666667 0 1.23689487 1.38065876 0.00582145333 0.527364723 1.52751188 0.527364723 0.296438467 1.38065876"></polygon>
                            </g>
                        </g>
                        <g id="s4-link" transform="translate(1.646667, 1.335616)">
                            <g id="s4">
                                <polygon id="s" points="0.766666667 0 1.23689487 1.38065876 0.00582145333 0.527364723 1.52751188 0.527364723 0.296438467 1.38065876"></polygon>
                                <g id="s-link" transform="translate(0.000000, 2.671233)">
                                    <polygon id="s" points="0.766666667 0 1.23689487 1.38065876 0.00582145333 0.527364723 1.52751188 0.527364723 0.296438467 1.38065876"></polygon>
                                </g>
                                <g id="s-link" transform="translate(0.000000, 5.342466)">
                                    <polygon id="s" points="0.766666667 0 1.23689487 1.38065876 0.00582145333 0.527364723 1.52751188 0.527364723 0.296438467 1.38065876"></polygon>
                                </g>
                                <g id="s-link" transform="translate(0.000000, 8.013699)">
                                    <polygon id="s" points="0.766666667 0 1.23689487 1.38065876 0.00582145333 0.527364723 1.52751188 0.527364723 0.296438467 1.38065876"></polygon>
                                </g>
                            </g>
                        </g>
                    </g>
                </g>
            </g>
        </g>
    </g>
</svg>